#define 1446064042259_width 16
#define 1446064042259_height 16
static char 1446064042259_bits[] = {
  0xFF, 0xFF, 0x07, 0xE0, 0xE3, 0xC7, 0xFB, 0xDF, 0xFB, 0xDF, 0x9B, 0xD9, 
  0xFB, 0xDF, 0xFB, 0xDF, 0x03, 0xC0, 0x63, 0xC6, 0x03, 0xC0, 0x07, 0xE0, 
  0x1F, 0xF0, 0x7F, 0xF0, 0xFF, 0xF8, 0xFF, 0xFF, };
